<mxfile host="app.diagrams.net" modified="2023-10-26T09:38:58.128Z" agent="Mozilla/5.0 (Windows NT 10.0; Win64; x64) AppleWebKit/537.36 (KHTML, like Gecko) Chrome/118.0.0.0 Safari/537.36" version="22.0.8" etag="9Q7sV_a1U5lzyqZVCI3l" type="github">
  <diagram name="第 1 页" id="99R2UvONL6ngbdWBcpjd">
    <mxGraphModel>
      <root>
        <mxCell id="0" />
        <mxCell id="1" parent="0" />
      </root>
    </mxGraphModel>
  </diagram>
</mxfile>
